<?xml version="1.0" encoding="utf-8" standalone="no"?>
<!DOCTYPE svg PUBLIC "-//W3C//DTD SVG 1.1//EN"
  "http://www.w3.org/Graphics/SVG/1.1/DTD/svg11.dtd">
<svg xmlns:xlink="http://www.w3.org/1999/xlink" width="324pt" height="165.6pt" viewBox="0 0 324 165.6" xmlns="http://www.w3.org/2000/svg" version="1.1">
 <metadata>
  <rdf:RDF xmlns:dc="http://purl.org/dc/elements/1.1/" xmlns:cc="http://creativecommons.org/ns#" xmlns:rdf="http://www.w3.org/1999/02/22-rdf-syntax-ns#">
   <cc:Work>
    <dc:type rdf:resource="http://purl.org/dc/dcmitype/StillImage"/>
    <dc:date>2024-10-20T16:26:51.191388</dc:date>
    <dc:format>image/svg+xml</dc:format>
    <dc:creator>
     <cc:Agent>
      <dc:title>Matplotlib v3.7.2, https://matplotlib.org/</dc:title>
     </cc:Agent>
    </dc:creator>
   </cc:Work>
  </rdf:RDF>
 </metadata>
 <defs>
  <style type="text/css">*{stroke-linejoin: round; stroke-linecap: butt}</style>
 </defs>
 <g id="figure_1">
  <g id="patch_1">
   <path d="M 0 165.6 
L 324 165.6 
L 324 0 
L 0 0 
z
" style="fill: #ffffff"/>
  </g>
  <g id="axes_1">
   <g id="patch_2">
    <path d="M 46.067087 127.997448 
L 155.157474 127.997448 
L 155.157474 9.72 
L 46.067087 9.72 
z
" style="fill: #ffffff"/>
   </g>
   <g id="PathCollection_1">
    <defs>
     <path id="m6b205d11c4" d="M 0 1.581139 
C 0.419323 1.581139 0.821528 1.41454 1.118034 1.118034 
C 1.41454 0.821528 1.581139 0.419323 1.581139 0 
C 1.581139 -0.419323 1.41454 -0.821528 1.118034 -1.118034 
C 0.821528 -1.41454 0.419323 -1.581139 0 -1.581139 
C -0.419323 -1.581139 -0.821528 -1.41454 -1.118034 -1.118034 
C -1.41454 -0.821528 -1.581139 -0.419323 -1.581139 0 
C -1.581139 0.419323 -1.41454 0.821528 -1.118034 1.118034 
C -0.821528 1.41454 -0.419323 1.581139 0 1.581139 
z
" style="stroke: #3b528b"/>
    </defs>
    <g clip-path="url(#p1226f009a5)">
     <use xlink:href="#m6b205d11c4" x="51.104254" y="121.369868" style="fill: #3b528b; stroke: #3b528b"/>
     <use xlink:href="#m6b205d11c4" x="51.028055" y="122.60898" style="fill: #3b528b; stroke: #3b528b"/>
     <use xlink:href="#m6b205d11c4" x="150.19882" y="88.172091" style="fill: #3b528b; stroke: #3b528b"/>
     <use xlink:href="#m6b205d11c4" x="53.338972" y="116.92992" style="fill: #3b528b; stroke: #3b528b"/>
     <use xlink:href="#m6b205d11c4" x="53.471204" y="114.632552" style="fill: #3b528b; stroke: #3b528b"/>
     <use xlink:href="#m6b205d11c4" x="56.562124" y="113.263908" style="fill: #3b528b; stroke: #3b528b"/>
     <use xlink:href="#m6b205d11c4" x="51.145246" y="122.184537" style="fill: #3b528b; stroke: #3b528b"/>
     <use xlink:href="#m6b205d11c4" x="51.094336" y="122.111217" style="fill: #3b528b; stroke: #3b528b"/>
     <use xlink:href="#m6b205d11c4" x="51.034832" y="122.551139" style="fill: #3b528b; stroke: #3b528b"/>
     <use xlink:href="#m6b205d11c4" x="51.190204" y="122.094924" style="fill: #3b528b; stroke: #3b528b"/>
     <use xlink:href="#m6b205d11c4" x="51.025741" y="122.6212" style="fill: #3b528b; stroke: #3b528b"/>
     <use xlink:href="#m6b205d11c4" x="51.603429" y="121.752763" style="fill: #3b528b; stroke: #3b528b"/>
     <use xlink:href="#m6b205d11c4" x="51.51252" y="121.630562" style="fill: #3b528b; stroke: #3b528b"/>
     <use xlink:href="#m6b205d11c4" x="51.305907" y="122.119364" style="fill: #3b528b; stroke: #3b528b"/>
     <use xlink:href="#m6b205d11c4" x="51.028716" y="122.608165" style="fill: #3b528b; stroke: #3b528b"/>
     <use xlink:href="#m6b205d11c4" x="137.140922" y="69.271761" style="fill: #3b528b; stroke: #3b528b"/>
     <use xlink:href="#m6b205d11c4" x="81.934115" y="88.497959" style="fill: #3b528b; stroke: #3b528b"/>
     <use xlink:href="#m6b205d11c4" x="51.152188" y="122.347471" style="fill: #3b528b; stroke: #3b528b"/>
     <use xlink:href="#m6b205d11c4" x="52.677813" y="113.263908" style="fill: #3b528b; stroke: #3b528b"/>
     <use xlink:href="#m6b205d11c4" x="51.570371" y="120.547052" style="fill: #3b528b; stroke: #3b528b"/>
     <use xlink:href="#m6b205d11c4" x="51.057973" y="122.225271" style="fill: #3b528b; stroke: #3b528b"/>
     <use xlink:href="#m6b205d11c4" x="65.074551" y="96.155851" style="fill: #3b528b; stroke: #3b528b"/>
     <use xlink:href="#m6b205d11c4" x="51.4588" y="121.633006" style="fill: #3b528b; stroke: #3b528b"/>
     <use xlink:href="#m6b205d11c4" x="61.272885" y="15.096248" style="fill: #3b528b; stroke: #3b528b"/>
     <use xlink:href="#m6b205d11c4" x="52.148886" y="108.050024" style="fill: #3b528b; stroke: #3b528b"/>
     <use xlink:href="#m6b205d11c4" x="51.044749" y="122.551139" style="fill: #3b528b; stroke: #3b528b"/>
     <use xlink:href="#m6b205d11c4" x="51.028551" y="122.600019" style="fill: #3b528b; stroke: #3b528b"/>
     <use xlink:href="#m6b205d11c4" x="51.026567" y="122.612239" style="fill: #3b528b; stroke: #3b528b"/>
     <use xlink:href="#m6b205d11c4" x="51.25632" y="121.614269" style="fill: #3b528b; stroke: #3b528b"/>
     <use xlink:href="#m6b205d11c4" x="51.438139" y="121.646856" style="fill: #3b528b; stroke: #3b528b"/>
     <use xlink:href="#m6b205d11c4" x="60.198501" y="108.375891" style="fill: #3b528b; stroke: #3b528b"/>
     <use xlink:href="#m6b205d11c4" x="59.653044" y="86.787153" style="fill: #3b528b; stroke: #3b528b"/>
     <use xlink:href="#m6b205d11c4" x="67.553899" y="109.842296" style="fill: #3b528b; stroke: #3b528b"/>
     <use xlink:href="#m6b205d11c4" x="55.196004" y="107.968557" style="fill: #3b528b; stroke: #3b528b"/>
     <use xlink:href="#m6b205d11c4" x="51.115824" y="122.437085" style="fill: #3b528b; stroke: #3b528b"/>
     <use xlink:href="#m6b205d11c4" x="51.292684" y="121.703882" style="fill: #3b528b; stroke: #3b528b"/>
     <use xlink:href="#m6b205d11c4" x="60.942305" y="116.033784" style="fill: #3b528b; stroke: #3b528b"/>
     <use xlink:href="#m6b205d11c4" x="51.619958" y="120.9218" style="fill: #3b528b; stroke: #3b528b"/>
     <use xlink:href="#m6b205d11c4" x="51.077807" y="122.477818" style="fill: #3b528b; stroke: #3b528b"/>
     <use xlink:href="#m6b205d11c4" x="51.147725" y="121.003267" style="fill: #3b528b; stroke: #3b528b"/>
     <use xlink:href="#m6b205d11c4" x="51.037311" y="122.534845" style="fill: #3b528b; stroke: #3b528b"/>
     <use xlink:href="#m6b205d11c4" x="51.049377" y="122.536475" style="fill: #3b528b; stroke: #3b528b"/>
     <use xlink:href="#m6b205d11c4" x="51.04508" y="122.388205" style="fill: #3b528b; stroke: #3b528b"/>
     <use xlink:href="#m6b205d11c4" x="51.176981" y="122.168244" style="fill: #3b528b; stroke: #3b528b"/>
     <use xlink:href="#m6b205d11c4" x="51.041609" y="122.306738" style="fill: #3b528b; stroke: #3b528b"/>
     <use xlink:href="#m6b205d11c4" x="51.032848" y="122.605721" style="fill: #3b528b; stroke: #3b528b"/>
     <use xlink:href="#m6b205d11c4" x="65.281163" y="107.968557" style="fill: #3b528b; stroke: #3b528b"/>
     <use xlink:href="#m6b205d11c4" x="51.768719" y="120.595932" style="fill: #3b528b; stroke: #3b528b"/>
     <use xlink:href="#m6b205d11c4" x="85.322722" y="108.864693" style="fill: #3b528b; stroke: #3b528b"/>
     <use xlink:href="#m6b205d11c4" x="51.173675" y="122.420791" style="fill: #3b528b; stroke: #3b528b"/>
     <use xlink:href="#m6b205d11c4" x="51.042105" y="122.428938" style="fill: #3b528b; stroke: #3b528b"/>
     <use xlink:href="#m6b205d11c4" x="51.355494" y="121.206934" style="fill: #3b528b; stroke: #3b528b"/>
     <use xlink:href="#m6b205d11c4" x="51.583594" y="119.007327" style="fill: #3b528b; stroke: #3b528b"/>
     <use xlink:href="#m6b205d11c4" x="51.724091" y="118.526672" style="fill: #3b528b; stroke: #3b528b"/>
    </g>
   </g>
   <g id="matplotlib.axis_1">
    <g id="xtick_1">
     <g id="line2d_1">
      <path d="M 51.024915 127.997448 
L 51.024915 9.72 
" clip-path="url(#p1226f009a5)" style="fill: none; stroke: #b0b0b0; stroke-width: 0.8; stroke-linecap: square"/>
     </g>
     <g id="line2d_2">
      <defs>
       <path id="m4ac2846b82" d="M 0 0 
L 0 3.5 
" style="stroke: #000000; stroke-width: 0.8"/>
      </defs>
      <g>
       <use xlink:href="#m4ac2846b82" x="51.024915" y="127.997448" style="stroke: #000000; stroke-width: 0.8"/>
      </g>
     </g>
     <g id="text_1">
      <!-- $\mathdefault{0}$ -->
      <g transform="translate(48.721069 141.172777) scale(0.09 -0.09)">
       <defs>
        <path id="CMR17-30" d="M 2688 2038 
C 2688 2430 2682 3099 2413 3613 
C 2176 4063 1798 4224 1466 4224 
C 1158 4224 768 4082 525 3620 
C 269 3137 243 2539 243 2038 
C 243 1671 250 1112 448 623 
C 723 -39 1216 -128 1466 -128 
C 1760 -128 2208 -7 2470 604 
C 2662 1048 2688 1568 2688 2038 
z
M 1466 -26 
C 1056 -26 813 328 723 816 
C 653 1196 653 1749 653 2109 
C 653 2604 653 3015 736 3407 
C 858 3954 1216 4121 1466 4121 
C 1728 4121 2067 3947 2189 3420 
C 2272 3054 2278 2623 2278 2109 
C 2278 1691 2278 1176 2202 797 
C 2067 96 1690 -26 1466 -26 
z
" transform="scale(0.015625)"/>
       </defs>
       <use xlink:href="#CMR17-30" transform="scale(0.996264)"/>
      </g>
     </g>
    </g>
    <g id="xtick_2">
     <g id="line2d_3">
      <path d="M 84.082883 127.997448 
L 84.082883 9.72 
" clip-path="url(#p1226f009a5)" style="fill: none; stroke: #b0b0b0; stroke-width: 0.8; stroke-linecap: square"/>
     </g>
     <g id="line2d_4">
      <g>
       <use xlink:href="#m4ac2846b82" x="84.082883" y="127.997448" style="stroke: #000000; stroke-width: 0.8"/>
      </g>
     </g>
     <g id="text_2">
      <!-- $\mathdefault{200}$ -->
      <g transform="translate(77.171347 141.172777) scale(0.09 -0.09)">
       <defs>
        <path id="CMR17-32" d="M 2669 990 
L 2554 990 
C 2490 537 2438 460 2413 422 
C 2381 371 1920 371 1830 371 
L 602 371 
C 832 620 1280 1073 1824 1596 
C 2214 1966 2669 2400 2669 3033 
C 2669 3788 2067 4224 1395 4224 
C 691 4224 262 3603 262 3027 
C 262 2777 448 2745 525 2745 
C 589 2745 781 2783 781 3007 
C 781 3206 614 3264 525 3264 
C 486 3264 448 3257 422 3244 
C 544 3788 915 4057 1306 4057 
C 1862 4057 2227 3616 2227 3033 
C 2227 2477 1901 1998 1536 1583 
L 262 147 
L 262 0 
L 2515 0 
L 2669 990 
z
" transform="scale(0.015625)"/>
       </defs>
       <use xlink:href="#CMR17-32" transform="scale(0.996264)"/>
       <use xlink:href="#CMR17-30" transform="translate(45.690477 0) scale(0.996264)"/>
       <use xlink:href="#CMR17-30" transform="translate(91.380954 0) scale(0.996264)"/>
      </g>
     </g>
    </g>
    <g id="xtick_3">
     <g id="line2d_5">
      <path d="M 117.140851 127.997448 
L 117.140851 9.72 
" clip-path="url(#p1226f009a5)" style="fill: none; stroke: #b0b0b0; stroke-width: 0.8; stroke-linecap: square"/>
     </g>
     <g id="line2d_6">
      <g>
       <use xlink:href="#m4ac2846b82" x="117.140851" y="127.997448" style="stroke: #000000; stroke-width: 0.8"/>
      </g>
     </g>
     <g id="text_3">
      <!-- $\mathdefault{400}$ -->
      <g transform="translate(110.229315 141.172777) scale(0.09 -0.09)">
       <defs>
        <path id="CMR17-34" d="M 2150 4147 
C 2150 4281 2144 4288 2029 4288 
L 128 1254 
L 128 1088 
L 1779 1088 
L 1779 460 
C 1779 230 1766 166 1318 166 
L 1197 166 
L 1197 0 
C 1402 12 1747 12 1965 12 
C 2182 12 2528 12 2733 0 
L 2733 166 
L 2611 166 
C 2163 166 2150 230 2150 460 
L 2150 1088 
L 2803 1088 
L 2803 1254 
L 2150 1254 
L 2150 4147 
z
M 1798 3723 
L 1798 1254 
L 256 1254 
L 1798 3723 
z
" transform="scale(0.015625)"/>
       </defs>
       <use xlink:href="#CMR17-34" transform="scale(0.996264)"/>
       <use xlink:href="#CMR17-30" transform="translate(45.690477 0) scale(0.996264)"/>
       <use xlink:href="#CMR17-30" transform="translate(91.380954 0) scale(0.996264)"/>
      </g>
     </g>
    </g>
    <g id="xtick_4">
     <g id="line2d_7">
      <path d="M 150.19882 127.997448 
L 150.19882 9.72 
" clip-path="url(#p1226f009a5)" style="fill: none; stroke: #b0b0b0; stroke-width: 0.8; stroke-linecap: square"/>
     </g>
     <g id="line2d_8">
      <g>
       <use xlink:href="#m4ac2846b82" x="150.19882" y="127.997448" style="stroke: #000000; stroke-width: 0.8"/>
      </g>
     </g>
     <g id="text_4">
      <!-- $\mathdefault{600}$ -->
      <g transform="translate(143.287284 141.172777) scale(0.09 -0.09)">
       <defs>
        <path id="CMR17-36" d="M 678 2198 
C 678 3712 1395 4076 1811 4076 
C 1946 4076 2272 4049 2400 3782 
C 2298 3782 2106 3782 2106 3558 
C 2106 3385 2246 3328 2336 3328 
C 2394 3328 2566 3353 2566 3571 
C 2566 3987 2246 4224 1805 4224 
C 1043 4224 243 3411 243 2011 
C 243 257 966 -128 1478 -128 
C 2099 -128 2688 431 2688 1295 
C 2688 2101 2170 2688 1517 2688 
C 1126 2688 838 2430 678 1979 
L 678 2198 
z
M 1478 25 
C 691 25 691 1212 691 1450 
C 691 1914 909 2585 1504 2585 
C 1613 2585 1926 2585 2138 2140 
C 2253 1889 2253 1624 2253 1302 
C 2253 954 2253 696 2118 438 
C 1978 173 1773 25 1478 25 
z
" transform="scale(0.015625)"/>
       </defs>
       <use xlink:href="#CMR17-36" transform="scale(0.996264)"/>
       <use xlink:href="#CMR17-30" transform="translate(45.690477 0) scale(0.996264)"/>
       <use xlink:href="#CMR17-30" transform="translate(91.380954 0) scale(0.996264)"/>
      </g>
     </g>
    </g>
    <g id="text_5">
     <!-- Body weight [kg] -->
     <g transform="translate(66.509316 153.638953) scale(0.09 -0.09)">
      <defs>
       <path id="SFRM3583-42" d="M 474 4352 
L 474 4211 
L 582 4211 
C 749 4211 883 4192 883 3943 
L 883 408 
C 883 159 774 140 474 140 
L 474 0 
L 2067 0 
C 2176 6 2278 0 2387 0 
C 2995 0 3738 368 3738 1151 
C 3738 1768 3168 2270 2554 2270 
C 2976 2383 3578 2580 3578 3274 
C 3578 3892 2989 4313 2387 4352 
L 474 4352 
z
M 1184 2223 
L 2285 2223 
C 2470 2223 2656 2211 2822 2115 
C 3168 1930 3379 1554 3379 1172 
C 3379 554 2854 134 2227 134 
C 2131 134 2029 140 1933 140 
L 1357 140 
C 1235 140 1184 210 1184 325 
L 1184 2223 
z
M 1184 2300 
L 1184 4001 
C 1184 4115 1210 4211 1357 4211 
L 1907 4211 
C 2003 4211 2099 4217 2202 4217 
C 2662 4217 3232 3950 3232 3281 
C 3232 2790 2816 2395 2342 2319 
C 2240 2300 2131 2300 2029 2300 
L 1184 2300 
z
" transform="scale(0.015625)"/>
       <path id="SFRM3583-6f" d="M 1350 2816 
C 614 2725 237 2032 237 1359 
C 237 673 685 -64 1440 -64 
L 1504 -64 
C 2240 26 2624 712 2624 1366 
C 2624 2021 2182 2816 1440 2816 
C 1408 2822 1382 2816 1350 2816 
z
M 563 1256 
L 563 1359 
C 563 1845 621 2388 1114 2660 
C 1197 2699 1293 2731 1389 2738 
L 1434 2738 
C 2054 2738 2298 2006 2298 1482 
C 2298 971 2246 240 1606 46 
C 1549 33 1491 20 1434 20 
C 960 20 653 499 595 958 
C 576 1055 576 1159 563 1256 
z
" transform="scale(0.015625)"/>
       <path id="SFRM3583-64" d="M 1882 4408 
L 1882 4265 
L 1952 4265 
C 2150 4265 2259 4207 2259 3960 
L 2253 2305 
C 2131 2603 1766 2805 1459 2805 
C 710 2805 269 2039 269 1357 
C 269 714 653 -19 1338 -64 
L 1395 -64 
C 1741 -64 2118 150 2246 468 
L 2253 -64 
L 2893 -26 
L 2893 117 
L 2816 117 
C 2605 117 2515 195 2515 422 
L 2515 4480 
L 1882 4408 
z
M 595 1214 
L 595 1312 
C 595 1760 659 2292 1056 2577 
C 1190 2675 1344 2727 1498 2727 
C 1862 2727 2259 2376 2259 2000 
C 2259 1928 2253 1850 2253 1779 
L 2253 734 
C 2253 383 1811 13 1440 13 
C 947 13 678 520 621 948 
C 608 1039 608 1123 595 1214 
z
" transform="scale(0.015625)"/>
       <path id="SFRM3583-79" d="M 90 2752 
L 90 2611 
L 134 2611 
C 435 2611 442 2534 672 1965 
C 915 1371 1178 771 1395 170 
C 1421 119 1453 61 1453 4 
C 1453 -9 1453 -28 1446 -41 
C 1389 -201 1318 -360 1254 -520 
C 1139 -808 992 -1204 627 -1204 
C 493 -1204 352 -1146 256 -1057 
C 358 -1057 448 -999 448 -884 
C 448 -788 371 -718 275 -718 
C 186 -718 109 -782 109 -897 
C 109 -1146 390 -1280 614 -1280 
C 1043 -1280 1210 -852 1350 -501 
C 1651 247 1971 981 2253 1735 
L 2368 2023 
C 2464 2272 2573 2611 2931 2611 
L 2931 2752 
L 2189 2752 
L 2189 2611 
C 2304 2611 2394 2496 2394 2387 
C 2394 2272 2330 2151 2291 2055 
C 2138 1678 1984 1307 1837 930 
L 1683 553 
C 1658 483 1626 419 1606 349 
L 1600 349 
C 1581 419 1549 489 1523 553 
L 1382 905 
C 1235 1282 1082 1652 928 2029 
L 819 2298 
C 800 2349 774 2400 768 2451 
L 768 2464 
C 768 2592 922 2611 1018 2611 
L 1018 2752 
L 717 2752 
L 90 2752 
z
" transform="scale(0.015625)"/>
       <path id="SFRM3583-77" d="M 90 2752 
L 90 2611 
L 141 2611 
C 397 2611 429 2494 563 2081 
L 1216 91 
C 1235 39 1248 -64 1318 -64 
L 1325 -64 
C 1382 -52 1402 65 1421 116 
L 1792 1247 
C 1850 1428 1907 1609 1971 1790 
C 2003 1893 2048 1997 2067 2100 
L 2074 2100 
C 2093 1997 2138 1893 2170 1790 
C 2234 1609 2291 1428 2349 1247 
L 2720 116 
C 2739 65 2758 -52 2816 -64 
L 2822 -64 
C 2893 -64 2906 39 2925 91 
L 3098 614 
C 3264 1124 3430 1629 3597 2139 
C 3661 2346 3776 2611 4051 2611 
L 4051 2752 
L 3296 2752 
L 3296 2611 
C 3456 2611 3552 2462 3552 2346 
C 3552 2249 3514 2152 3482 2061 
C 3290 1486 3104 905 2912 330 
C 2835 511 2784 704 2726 892 
C 2579 1338 2426 1790 2278 2242 
C 2259 2307 2221 2385 2221 2456 
C 2221 2591 2387 2611 2490 2611 
L 2490 2752 
L 1600 2752 
L 1600 2611 
L 1645 2611 
C 1824 2611 1920 2572 1984 2352 
C 1997 2320 2016 2275 2016 2236 
L 2016 2223 
C 2010 2158 1984 2100 1965 2042 
L 1843 1687 
C 1690 1247 1536 795 1408 349 
L 1402 349 
C 1389 420 1357 491 1338 562 
L 1216 931 
C 1094 1299 973 1661 851 2029 
L 762 2313 
C 742 2359 723 2410 723 2456 
L 723 2475 
C 742 2591 896 2611 992 2611 
L 992 2752 
L 90 2752 
z
" transform="scale(0.015625)"/>
       <path id="SFRM3583-65" d="M 563 1515 
L 2246 1515 
C 2259 1515 2285 1508 2310 1508 
C 2355 1508 2374 1534 2374 1573 
C 2374 2149 2099 2816 1382 2816 
C 614 2816 237 2019 237 1385 
C 237 751 589 33 1350 -64 
C 1376 -58 1402 -64 1427 -64 
C 1869 -64 2208 245 2355 665 
C 2362 685 2368 710 2368 730 
C 2368 749 2362 768 2336 768 
C 2272 768 2266 665 2246 607 
C 2118 297 1843 26 1485 26 
C 1216 26 960 181 813 400 
C 576 723 563 1137 563 1517 
L 563 1515 
z
M 570 1595 
C 582 2099 832 2738 1370 2738 
C 1818 2738 2010 2260 2061 1886 
C 2067 1789 2067 1692 2080 1595 
L 570 1595 
z
" transform="scale(0.015625)"/>
       <path id="SFRM3583-69" d="M 326 2732 
L 326 2590 
L 358 2590 
C 563 2590 678 2558 678 2250 
L 678 359 
C 678 153 531 140 307 140 
L 307 0 
L 1274 0 
L 1274 140 
L 1190 140 
C 1056 140 934 153 934 372 
L 934 2803 
L 326 2732 
z
M 698 4160 
C 595 4160 531 4044 531 3960 
C 531 3864 608 3748 730 3748 
C 858 3748 934 3857 934 3954 
C 934 4044 858 4160 736 4160 
C 723 4166 710 4160 698 4160 
z
" transform="scale(0.015625)"/>
       <path id="SFRM3583-67" d="M 659 1211 
L 659 1205 
C 531 1077 474 867 474 689 
C 474 460 570 313 749 172 
C 448 121 154 -172 154 -497 
C 154 -1038 896 -1280 1421 -1280 
C 1933 -1280 2701 -1089 2701 -459 
C 2701 -108 2464 160 2138 262 
C 1907 339 1658 345 1414 345 
L 1222 345 
C 1165 345 1107 339 1050 339 
C 742 339 582 530 582 791 
C 582 905 646 1135 710 1135 
L 717 1135 
C 755 1135 870 1039 947 1007 
C 1050 963 1158 944 1274 944 
C 1805 944 2144 1402 2144 1867 
C 2144 2077 2067 2332 1914 2484 
L 1914 2491 
C 2086 2625 2266 2739 2490 2739 
C 2534 2739 2579 2733 2624 2720 
C 2586 2695 2554 2656 2554 2605 
C 2554 2542 2611 2497 2669 2497 
C 2746 2497 2784 2548 2784 2605 
C 2784 2758 2630 2816 2502 2816 
C 2291 2816 2086 2726 1920 2593 
C 1907 2580 1882 2561 1862 2561 
C 1824 2561 1696 2669 1613 2714 
C 1504 2758 1389 2784 1274 2784 
C 742 2784 397 2319 397 1861 
C 397 1644 480 1357 659 1211 
z
M 358 -548 
L 358 -497 
C 358 -261 506 -25 717 70 
C 826 121 941 128 1062 128 
L 1594 128 
C 1958 128 2502 0 2502 -497 
C 2502 -994 1850 -1204 1434 -1204 
C 1005 -1204 422 -1007 358 -548 
z
M 710 1733 
L 710 1816 
C 710 2166 787 2701 1267 2701 
C 1683 2701 1830 2281 1830 1886 
C 1830 1612 1805 1256 1523 1096 
C 1446 1049 1357 1024 1274 1024 
C 896 1024 749 1392 710 1735 
L 710 1733 
z
" transform="scale(0.015625)"/>
       <path id="SFRM3583-68" d="M 301 4408 
L 301 4266 
L 378 4266 
C 602 4266 678 4169 678 3950 
L 678 373 
C 678 179 595 140 301 140 
L 301 0 
L 1318 0 
L 1318 140 
L 1229 140 
C 1082 140 941 160 941 360 
L 941 1774 
C 979 2213 1203 2736 1709 2736 
C 2112 2736 2266 2413 2266 1948 
L 2266 360 
C 2266 153 2112 140 1888 140 
L 1888 0 
L 2906 0 
L 2906 140 
L 2803 140 
C 2656 140 2528 160 2528 386 
L 2528 1877 
C 2528 2310 2445 2814 1760 2814 
C 1427 2814 1178 2626 1030 2355 
C 992 2291 954 2213 941 2142 
L 934 4480 
L 301 4408 
z
" transform="scale(0.015625)"/>
       <path id="SFRM3583-74" d="M 845 3968 
C 845 3593 762 2687 109 2687 
L 109 2611 
L 666 2611 
L 666 1118 
C 666 1028 659 924 659 827 
C 659 427 787 -64 1318 -64 
C 1811 -64 1907 485 1907 885 
L 1907 1137 
L 1824 1137 
C 1824 1040 1830 944 1830 840 
C 1830 549 1773 20 1376 20 
C 1005 20 922 478 922 827 
C 922 937 928 1040 928 1150 
L 928 2611 
L 1811 2611 
L 1811 2752 
L 928 2752 
L 928 3968 
L 845 3968 
z
" transform="scale(0.015625)"/>
       <path id="SFRM3583-5b" d="M 659 4800 
L 659 -1600 
L 1466 -1600 
L 1466 -1523 
L 915 -1523 
L 915 4722 
L 1466 4722 
L 1466 4800 
L 659 4800 
z
" transform="scale(0.015625)"/>
       <path id="SFRM3583-6b" d="M 288 4408 
L 288 4264 
L 365 4264 
C 589 4264 666 4165 666 3943 
L 666 371 
C 666 179 582 140 288 140 
L 288 0 
L 1293 0 
L 1293 140 
L 1190 140 
C 1056 140 915 160 915 352 
L 915 1056 
C 915 1209 1165 1369 1286 1491 
L 1389 1587 
C 1600 1222 1850 883 2080 518 
C 2112 467 2189 364 2189 268 
C 2189 230 2176 198 2144 172 
L 2106 153 
C 2080 147 2061 140 2035 140 
L 2035 0 
L 2925 0 
L 2925 140 
C 2573 140 2490 358 2355 563 
C 2118 921 1888 1273 1658 1632 
C 1638 1664 1587 1721 1587 1760 
C 1600 1811 1760 1945 1843 2022 
C 2106 2272 2406 2604 2797 2611 
L 2797 2752 
L 1946 2752 
L 1946 2611 
L 2003 2592 
C 2048 2560 2067 2521 2067 2476 
C 2067 2297 1824 2118 1696 2003 
C 1440 1753 1178 1510 922 1260 
L 922 4480 
L 288 4408 
z
" transform="scale(0.015625)"/>
       <path id="SFRM3583-5d" d="M 122 4800 
L 122 4722 
L 672 4722 
L 672 -1523 
L 122 -1523 
L 122 -1600 
L 928 -1600 
L 928 4800 
L 122 4800 
z
" transform="scale(0.015625)"/>
      </defs>
      <use xlink:href="#SFRM3583-42" transform="scale(0.996264)"/>
      <use xlink:href="#SFRM3583-6f" transform="translate(63.149724 0) scale(0.996264)"/>
      <use xlink:href="#SFRM3583-64" transform="translate(110.208164 0) scale(0.996264)"/>
      <use xlink:href="#SFRM3583-79" transform="translate(159.746592 0) scale(0.996264)"/>
      <use xlink:href="#SFRM3583-77" transform="translate(236.503326 0) scale(0.996264)"/>
      <use xlink:href="#SFRM3583-65" transform="translate(298.441924 0) scale(0.996264)"/>
      <use xlink:href="#SFRM3583-69" transform="translate(338.060322 0) scale(0.996264)"/>
      <use xlink:href="#SFRM3583-67" transform="translate(362.798654 0) scale(0.996264)"/>
      <use xlink:href="#SFRM3583-68" transform="translate(407.377121 0) scale(0.996264)"/>
      <use xlink:href="#SFRM3583-74" transform="translate(454.435561 0) scale(0.996264)"/>
      <use xlink:href="#SFRM3583-5b" transform="translate(518.7922 0) scale(0.996264)"/>
      <use xlink:href="#SFRM3583-6b" transform="translate(543.530532 0) scale(0.996264)"/>
      <use xlink:href="#SFRM3583-67" transform="translate(590.588972 0) scale(0.996264)"/>
      <use xlink:href="#SFRM3583-5d" transform="translate(635.167439 0) scale(0.996264)"/>
     </g>
    </g>
   </g>
   <g id="matplotlib.axis_2">
    <g id="ytick_1">
     <g id="line2d_9">
      <path d="M 46.067087 122.632606 
L 155.157474 122.632606 
" clip-path="url(#p1226f009a5)" style="fill: none; stroke: #b0b0b0; stroke-width: 0.8; stroke-linecap: square"/>
     </g>
     <g id="line2d_10">
      <defs>
       <path id="m0a92ea4bbd" d="M 0 0 
L -3.5 0 
" style="stroke: #000000; stroke-width: 0.8"/>
      </defs>
      <g>
       <use xlink:href="#m0a92ea4bbd" x="46.067087" y="122.632606" style="stroke: #000000; stroke-width: 0.8"/>
      </g>
     </g>
     <g id="text_6">
      <!-- $\mathdefault{0.00}$ -->
      <g transform="translate(22.684187 125.72027) scale(0.09 -0.09)">
       <defs>
        <path id="CMMI12-3a" d="M 1178 307 
C 1178 492 1024 620 870 620 
C 685 620 557 467 557 313 
C 557 128 710 0 864 0 
C 1050 0 1178 153 1178 307 
z
" transform="scale(0.015625)"/>
       </defs>
       <use xlink:href="#CMR17-30" transform="scale(0.996264)"/>
       <use xlink:href="#CMMI12-3a" transform="translate(45.690477 0) scale(0.996264)"/>
       <use xlink:href="#CMR17-30" transform="translate(72.787654 0) scale(0.996264)"/>
       <use xlink:href="#CMR17-30" transform="translate(118.478131 0) scale(0.996264)"/>
      </g>
     </g>
    </g>
    <g id="ytick_2">
     <g id="line2d_11">
      <path d="M 46.067087 102.265871 
L 155.157474 102.265871 
" clip-path="url(#p1226f009a5)" style="fill: none; stroke: #b0b0b0; stroke-width: 0.8; stroke-linecap: square"/>
     </g>
     <g id="line2d_12">
      <g>
       <use xlink:href="#m0a92ea4bbd" x="46.067087" y="102.265871" style="stroke: #000000; stroke-width: 0.8"/>
      </g>
     </g>
     <g id="text_7">
      <!-- $\mathdefault{0.25}$ -->
      <g transform="translate(22.684187 105.353535) scale(0.09 -0.09)">
       <defs>
        <path id="CMR17-35" d="M 730 3750 
C 794 3724 1056 3641 1325 3641 
C 1920 3641 2246 3961 2432 4140 
C 2432 4191 2432 4224 2394 4224 
C 2387 4224 2374 4224 2323 4198 
C 2099 4102 1837 4032 1517 4032 
C 1325 4032 1037 4055 723 4191 
C 653 4224 640 4224 634 4224 
C 602 4224 595 4217 595 4090 
L 595 2231 
C 595 2113 595 2080 659 2080 
C 691 2080 704 2093 736 2139 
C 941 2435 1222 2560 1542 2560 
C 1766 2560 2246 2415 2246 1293 
C 2246 1087 2246 716 2054 422 
C 1894 159 1645 25 1370 25 
C 947 25 518 319 403 812 
C 429 806 480 793 506 793 
C 589 793 749 838 749 1036 
C 749 1209 627 1280 506 1280 
C 358 1280 262 1190 262 1011 
C 262 454 704 -128 1382 -128 
C 2042 -128 2669 441 2669 1267 
C 2669 2054 2170 2662 1549 2662 
C 1222 2662 947 2540 730 2304 
L 730 3750 
z
" transform="scale(0.015625)"/>
       </defs>
       <use xlink:href="#CMR17-30" transform="scale(0.996264)"/>
       <use xlink:href="#CMMI12-3a" transform="translate(45.690477 0) scale(0.996264)"/>
       <use xlink:href="#CMR17-32" transform="translate(72.787654 0) scale(0.996264)"/>
       <use xlink:href="#CMR17-35" transform="translate(118.478131 0) scale(0.996264)"/>
      </g>
     </g>
    </g>
    <g id="ytick_3">
     <g id="line2d_13">
      <path d="M 46.067087 81.899137 
L 155.157474 81.899137 
" clip-path="url(#p1226f009a5)" style="fill: none; stroke: #b0b0b0; stroke-width: 0.8; stroke-linecap: square"/>
     </g>
     <g id="line2d_14">
      <g>
       <use xlink:href="#m0a92ea4bbd" x="46.067087" y="81.899137" style="stroke: #000000; stroke-width: 0.8"/>
      </g>
     </g>
     <g id="text_8">
      <!-- $\mathdefault{0.50}$ -->
      <g transform="translate(22.684187 84.986801) scale(0.09 -0.09)">
       <use xlink:href="#CMR17-30" transform="scale(0.996264)"/>
       <use xlink:href="#CMMI12-3a" transform="translate(45.690477 0) scale(0.996264)"/>
       <use xlink:href="#CMR17-35" transform="translate(72.787654 0) scale(0.996264)"/>
       <use xlink:href="#CMR17-30" transform="translate(118.478131 0) scale(0.996264)"/>
      </g>
     </g>
    </g>
    <g id="ytick_4">
     <g id="line2d_15">
      <path d="M 46.067087 61.532402 
L 155.157474 61.532402 
" clip-path="url(#p1226f009a5)" style="fill: none; stroke: #b0b0b0; stroke-width: 0.8; stroke-linecap: square"/>
     </g>
     <g id="line2d_16">
      <g>
       <use xlink:href="#m0a92ea4bbd" x="46.067087" y="61.532402" style="stroke: #000000; stroke-width: 0.8"/>
      </g>
     </g>
     <g id="text_9">
      <!-- $\mathdefault{0.75}$ -->
      <g transform="translate(22.684187 64.620067) scale(0.09 -0.09)">
       <defs>
        <path id="CMR17-37" d="M 2886 3955 
L 2886 4096 
L 1382 4096 
C 634 4096 621 4166 595 4288 
L 480 4288 
L 294 3104 
L 410 3104 
C 429 3226 474 3552 550 3673 
C 589 3724 1062 3724 1171 3724 
L 2579 3724 
L 1869 2670 
C 1395 1961 1069 1003 1069 166 
C 1069 89 1069 -128 1299 -128 
C 1530 -128 1530 89 1530 172 
L 1530 466 
C 1530 1514 1709 2204 2003 2644 
L 2886 3955 
z
" transform="scale(0.015625)"/>
       </defs>
       <use xlink:href="#CMR17-30" transform="scale(0.996264)"/>
       <use xlink:href="#CMMI12-3a" transform="translate(45.690477 0) scale(0.996264)"/>
       <use xlink:href="#CMR17-37" transform="translate(72.787654 0) scale(0.996264)"/>
       <use xlink:href="#CMR17-35" transform="translate(118.478131 0) scale(0.996264)"/>
      </g>
     </g>
    </g>
    <g id="ytick_5">
     <g id="line2d_17">
      <path d="M 46.067087 41.165668 
L 155.157474 41.165668 
" clip-path="url(#p1226f009a5)" style="fill: none; stroke: #b0b0b0; stroke-width: 0.8; stroke-linecap: square"/>
     </g>
     <g id="line2d_18">
      <g>
       <use xlink:href="#m0a92ea4bbd" x="46.067087" y="41.165668" style="stroke: #000000; stroke-width: 0.8"/>
      </g>
     </g>
     <g id="text_10">
      <!-- $\mathdefault{1.00}$ -->
      <g transform="translate(22.684187 44.253332) scale(0.09 -0.09)">
       <defs>
        <path id="CMR17-31" d="M 1702 4083 
C 1702 4217 1696 4224 1606 4224 
C 1357 3927 979 3833 621 3820 
C 602 3820 570 3820 563 3808 
C 557 3795 557 3782 557 3648 
C 755 3648 1088 3686 1344 3839 
L 1344 467 
C 1344 243 1331 166 781 166 
L 589 166 
L 589 0 
C 896 6 1216 12 1523 12 
C 1830 12 2150 6 2458 0 
L 2458 166 
L 2266 166 
C 1715 166 1702 236 1702 467 
L 1702 4083 
z
" transform="scale(0.015625)"/>
       </defs>
       <use xlink:href="#CMR17-31" transform="scale(0.996264)"/>
       <use xlink:href="#CMMI12-3a" transform="translate(45.690477 0) scale(0.996264)"/>
       <use xlink:href="#CMR17-30" transform="translate(72.787654 0) scale(0.996264)"/>
       <use xlink:href="#CMR17-30" transform="translate(118.478131 0) scale(0.996264)"/>
      </g>
     </g>
    </g>
    <g id="ytick_6">
     <g id="line2d_19">
      <path d="M 46.067087 20.798933 
L 155.157474 20.798933 
" clip-path="url(#p1226f009a5)" style="fill: none; stroke: #b0b0b0; stroke-width: 0.8; stroke-linecap: square"/>
     </g>
     <g id="line2d_20">
      <g>
       <use xlink:href="#m0a92ea4bbd" x="46.067087" y="20.798933" style="stroke: #000000; stroke-width: 0.8"/>
      </g>
     </g>
     <g id="text_11">
      <!-- $\mathdefault{1.25}$ -->
      <g transform="translate(22.684187 23.886598) scale(0.09 -0.09)">
       <use xlink:href="#CMR17-31" transform="scale(0.996264)"/>
       <use xlink:href="#CMMI12-3a" transform="translate(45.690477 0) scale(0.996264)"/>
       <use xlink:href="#CMR17-32" transform="translate(72.787654 0) scale(0.996264)"/>
       <use xlink:href="#CMR17-35" transform="translate(118.478131 0) scale(0.996264)"/>
      </g>
     </g>
    </g>
    <g id="text_12">
     <!-- Brain weight [kg] -->
     <g transform="translate(16.44314 103.4839) rotate(-90) scale(0.09 -0.09)">
      <defs>
       <path id="SFRM3583-72" d="M 288 2744 
L 288 2602 
L 352 2602 
C 557 2602 666 2557 666 2273 
L 666 360 
C 666 153 512 140 288 140 
L 288 0 
L 1389 0 
L 1389 140 
L 1261 140 
C 1075 140 922 160 922 405 
L 922 1349 
C 922 1898 1037 2738 1658 2738 
C 1728 2738 1798 2719 1862 2693 
C 1786 2660 1722 2609 1722 2518 
C 1722 2428 1792 2337 1901 2337 
C 1997 2337 2074 2421 2074 2518 
C 2074 2732 1837 2816 1664 2816 
C 1274 2816 979 2434 922 2079 
L 915 2816 
L 288 2744 
z
" transform="scale(0.015625)"/>
       <path id="SFRM3583-61" d="M 576 2058 
C 659 2401 883 2738 1274 2738 
C 1619 2738 1869 2408 1920 2090 
C 1933 2006 1933 1915 1933 1831 
L 1933 1579 
C 1318 1579 474 1436 320 659 
C 314 620 314 575 314 536 
C 314 102 800 -64 1133 -64 
C 1446 -64 1856 141 1939 497 
L 1946 497 
C 1946 225 2125 -45 2394 -45 
C 2746 -45 2829 335 2829 614 
L 2829 905 
L 2746 905 
L 2746 575 
C 2746 368 2701 70 2470 70 
C 2208 70 2195 413 2195 588 
L 2195 1792 
C 2195 1954 2189 2123 2125 2278 
C 1990 2595 1638 2816 1293 2816 
C 800 2816 480 2375 480 1896 
C 480 1773 570 1702 672 1702 
C 774 1702 858 1786 858 1890 
C 858 1987 794 2077 672 2077 
C 640 2077 608 2071 576 2058 
z
M 1933 1507 
L 1933 873 
C 1933 445 1670 44 1229 12 
L 1190 12 
C 896 12 627 245 627 562 
C 627 1236 1363 1507 1933 1507 
z
" transform="scale(0.015625)"/>
       <path id="SFRM3583-6e" d="M 301 2744 
L 301 2602 
L 365 2602 
C 570 2602 678 2557 678 2273 
L 678 360 
C 678 153 525 140 301 140 
L 301 0 
L 1318 0 
L 1318 140 
L 1229 140 
C 1082 140 941 160 941 360 
L 941 1775 
C 979 2215 1203 2738 1709 2738 
C 2112 2738 2266 2415 2266 1950 
L 2266 360 
C 2266 153 2112 140 1888 140 
L 1888 0 
L 2906 0 
L 2906 140 
L 2803 140 
C 2656 140 2528 160 2528 386 
L 2528 1885 
C 2528 2299 2451 2816 1760 2816 
C 1414 2816 1178 2628 1024 2350 
C 986 2279 947 2202 934 2124 
L 928 2816 
L 301 2744 
z
" transform="scale(0.015625)"/>
      </defs>
      <use xlink:href="#SFRM3583-42" transform="scale(0.996264)"/>
      <use xlink:href="#SFRM3583-72" transform="translate(63.149724 0) scale(0.996264)"/>
      <use xlink:href="#SFRM3583-61" transform="translate(97.80807 0) scale(0.996264)"/>
      <use xlink:href="#SFRM3583-69" transform="translate(142.386537 0) scale(0.996264)"/>
      <use xlink:href="#SFRM3583-6e" transform="translate(167.124869 0) scale(0.996264)"/>
      <use xlink:href="#SFRM3583-77" transform="translate(246.36159 0) scale(0.996264)"/>
      <use xlink:href="#SFRM3583-65" transform="translate(308.300188 0) scale(0.996264)"/>
      <use xlink:href="#SFRM3583-69" transform="translate(347.918587 0) scale(0.996264)"/>
      <use xlink:href="#SFRM3583-67" transform="translate(372.656919 0) scale(0.996264)"/>
      <use xlink:href="#SFRM3583-68" transform="translate(417.235386 0) scale(0.996264)"/>
      <use xlink:href="#SFRM3583-74" transform="translate(464.293826 0) scale(0.996264)"/>
      <use xlink:href="#SFRM3583-5b" transform="translate(528.650465 0) scale(0.996264)"/>
      <use xlink:href="#SFRM3583-6b" transform="translate(553.388797 0) scale(0.996264)"/>
      <use xlink:href="#SFRM3583-67" transform="translate(600.447236 0) scale(0.996264)"/>
      <use xlink:href="#SFRM3583-5d" transform="translate(645.025703 0) scale(0.996264)"/>
     </g>
    </g>
   </g>
   <g id="patch_3">
    <path d="M 46.067087 127.997448 
L 46.067087 9.72 
" style="fill: none; stroke: #000000; stroke-width: 0.8; stroke-linejoin: miter; stroke-linecap: square"/>
   </g>
   <g id="patch_4">
    <path d="M 155.157474 127.997448 
L 155.157474 9.72 
" style="fill: none; stroke: #000000; stroke-width: 0.8; stroke-linejoin: miter; stroke-linecap: square"/>
   </g>
   <g id="patch_5">
    <path d="M 46.067087 127.997448 
L 155.157474 127.997448 
" style="fill: none; stroke: #000000; stroke-width: 0.8; stroke-linejoin: miter; stroke-linecap: square"/>
   </g>
   <g id="patch_6">
    <path d="M 46.067087 9.72 
L 155.157474 9.72 
" style="fill: none; stroke: #000000; stroke-width: 0.8; stroke-linejoin: miter; stroke-linecap: square"/>
   </g>
  </g>
  <g id="axes_2">
   <g id="patch_7">
    <path d="M 205.189613 127.997448 
L 314.28 127.997448 
L 314.28 9.72 
L 205.189613 9.72 
z
" style="fill: #ffffff"/>
   </g>
   <g id="PathCollection_2">
    <defs>
     <path id="m267155bf9b" d="M 0 1.581139 
C 0.419323 1.581139 0.821528 1.41454 1.118034 1.118034 
C 1.41454 0.821528 1.581139 0.419323 1.581139 0 
C 1.581139 -0.419323 1.41454 -0.821528 1.118034 -1.118034 
C 0.821528 -1.41454 0.419323 -1.581139 0 -1.581139 
C -0.419323 -1.581139 -0.821528 -1.41454 -1.118034 -1.118034 
C -1.41454 -0.821528 -1.581139 -0.419323 -1.581139 0 
C -1.581139 0.419323 -1.41454 0.821528 -1.118034 1.118034 
C -0.821528 1.41454 -0.419323 1.581139 0 1.581139 
z
" style="stroke: #5ec962"/>
    </defs>
    <g clip-path="url(#p3efcc74b5d)">
     <use xlink:href="#m267155bf9b" x="242.248908" y="74.948439" style="fill: #5ec962; stroke: #5ec962"/>
     <use xlink:href="#m267155bf9b" x="219.537207" y="115.245486" style="fill: #5ec962; stroke: #5ec962"/>
     <use xlink:href="#m267155bf9b" x="292.399862" y="41.459359" style="fill: #5ec962; stroke: #5ec962"/>
     <use xlink:href="#m267155bf9b" x="265.971092" y="59.678669" style="fill: #5ec962; stroke: #5ec962"/>
     <use xlink:href="#m267155bf9b" x="266.36191" y="56.250176" style="fill: #5ec962; stroke: #5ec962"/>
     <use xlink:href="#m267155bf9b" x="272.107221" y="54.650678" style="fill: #5ec962; stroke: #5ec962"/>
     <use xlink:href="#m267155bf9b" x="245.178219" y="85.442141" style="fill: #5ec962; stroke: #5ec962"/>
     <use xlink:href="#m267155bf9b" x="241.309794" y="83.90722" style="fill: #5ec962; stroke: #5ec962"/>
     <use xlink:href="#m267155bf9b" x="227.624387" y="102.708099" style="fill: #5ec962; stroke: #5ec962"/>
     <use xlink:href="#m267155bf9b" x="247.410845" y="83.59556" style="fill: #5ec962; stroke: #5ec962"/>
     <use xlink:href="#m267155bf9b" x="210.148267" y="122.6212" style="fill: #5ec962; stroke: #5ec962"/>
     <use xlink:href="#m267155bf9b" x="256.221412" y="78.60768" style="fill: #5ec962; stroke: #5ec962"/>
     <use xlink:href="#m267155bf9b" x="255.019081" y="77.290482" style="fill: #5ec962; stroke: #5ec962"/>
     <use xlink:href="#m267155bf9b" x="251.142705" y="84.066722" style="fill: #5ec962; stroke: #5ec962"/>
     <use xlink:href="#m267155bf9b" x="302.567631" y="17.282521" style="fill: #5ec962; stroke: #5ec962"/>
     <use xlink:href="#m267155bf9b" x="220.880881" y="114.902125" style="fill: #5ec962; stroke: #5ec962"/>
     <use xlink:href="#m267155bf9b" x="291.406959" y="37.03069" style="fill: #5ec962; stroke: #5ec962"/>
     <use xlink:href="#m267155bf9b" x="284.20075" y="41.55559" style="fill: #5ec962; stroke: #5ec962"/>
     <use xlink:href="#m267155bf9b" x="245.572691" y="90.019918" style="fill: #5ec962; stroke: #5ec962"/>
     <use xlink:href="#m267155bf9b" x="263.604714" y="54.650678" style="fill: #5ec962; stroke: #5ec962"/>
     <use xlink:href="#m267155bf9b" x="255.807592" y="69.866612" style="fill: #5ec962; stroke: #5ec962"/>
     <use xlink:href="#m267155bf9b" x="236.091817" y="86.407458" style="fill: #5ec962; stroke: #5ec962"/>
     <use xlink:href="#m267155bf9b" x="278.655602" y="44.128605" style="fill: #5ec962; stroke: #5ec962"/>
     <use xlink:href="#m267155bf9b" x="254.19817" y="77.315215" style="fill: #5ec962; stroke: #5ec962"/>
     <use xlink:href="#m267155bf9b" x="276.436601" y="29.933366" style="fill: #5ec962; stroke: #5ec962"/>
     <use xlink:href="#m267155bf9b" x="309.321346" y="15.096248" style="fill: #5ec962; stroke: #5ec962"/>
     <use xlink:href="#m267155bf9b" x="260.892385" y="50.169437" style="fill: #5ec962; stroke: #5ec962"/>
     <use xlink:href="#m267155bf9b" x="232.499227" y="102.708099" style="fill: #5ec962; stroke: #5ec962"/>
     <use xlink:href="#m267155bf9b" x="220.568256" y="111.988436" style="fill: #5ec962; stroke: #5ec962"/>
     <use xlink:href="#m267155bf9b" x="215.023108" y="116.748707" style="fill: #5ec962; stroke: #5ec962"/>
     <use xlink:href="#m267155bf9b" x="249.777223" y="77.127121" style="fill: #5ec962; stroke: #5ec962"/>
     <use xlink:href="#m267155bf9b" x="253.855033" y="77.456521" style="fill: #5ec962; stroke: #5ec962"/>
     <use xlink:href="#m267155bf9b" x="275.657697" y="50.398332" style="fill: #5ec962; stroke: #5ec962"/>
     <use xlink:href="#m267155bf9b" x="275.226576" y="41.060284" style="fill: #5ec962; stroke: #5ec962"/>
     <use xlink:href="#m267155bf9b" x="279.798583" y="51.497644" style="fill: #5ec962; stroke: #5ec962"/>
     <use xlink:href="#m267155bf9b" x="270.114703" y="50.113013" style="fill: #5ec962; stroke: #5ec962"/>
     <use xlink:href="#m267155bf9b" x="243.206313" y="93.841213" style="fill: #5ec962; stroke: #5ec962"/>
     <use xlink:href="#m267155bf9b" x="250.803704" y="78.060079" style="fill: #5ec962; stroke: #5ec962"/>
     <use xlink:href="#m267155bf9b" x="276.205993" y="58.200425" style="fill: #5ec962; stroke: #5ec962"/>
     <use xlink:href="#m267155bf9b" x="256.419535" y="71.872695" style="fill: #5ec962; stroke: #5ec962"/>
     <use xlink:href="#m267155bf9b" x="239.397309" y="96.207302" style="fill: #5ec962; stroke: #5ec962"/>
     <use xlink:href="#m267155bf9b" x="245.321655" y="72.36685" style="fill: #5ec962; stroke: #5ec962"/>
     <use xlink:href="#m267155bf9b" x="229.193735" y="100.861517" style="fill: #5ec962; stroke: #5ec962"/>
     <use xlink:href="#m267155bf9b" x="233.974172" y="101.031743" style="fill: #5ec962; stroke: #5ec962"/>
     <use xlink:href="#m267155bf9b" x="232.615476" y="91.58118" style="fill: #5ec962; stroke: #5ec962"/>
     <use xlink:href="#m267155bf9b" x="246.82443" y="85.080383" style="fill: #5ec962; stroke: #5ec962"/>
     <use xlink:href="#m267155bf9b" x="231.286956" y="88.667491" style="fill: #5ec962; stroke: #5ec962"/>
     <use xlink:href="#m267155bf9b" x="226.055039" y="113.936809" style="fill: #5ec962; stroke: #5ec962"/>
     <use xlink:href="#m267155bf9b" x="278.758274" y="50.113013" style="fill: #5ec962; stroke: #5ec962"/>
     <use xlink:href="#m267155bf9b" x="257.988883" y="70.106817" style="fill: #5ec962; stroke: #5ec962"/>
     <use xlink:href="#m267155bf9b" x="284.932366" y="50.751675" style="fill: #5ec962; stroke: #5ec962"/>
     <use xlink:href="#m267155bf9b" x="246.669854" y="93.030528" style="fill: #5ec962; stroke: #5ec962"/>
     <use xlink:href="#m267155bf9b" x="231.492812" y="93.427762" style="fill: #5ec962; stroke: #5ec962"/>
     <use xlink:href="#m267155bf9b" x="252.285685" y="73.719277" style="fill: #5ec962; stroke: #5ec962"/>
     <use xlink:href="#m267155bf9b" x="255.976053" y="64.266786" style="fill: #5ec962; stroke: #5ec962"/>
     <use xlink:href="#m267155bf9b" x="257.553719" y="63.00581" style="fill: #5ec962; stroke: #5ec962"/>
    </g>
   </g>
   <g id="matplotlib.axis_3">
    <g id="xtick_5">
     <g id="line2d_21">
      <path d="M 231.216976 127.997448 
L 231.216976 9.72 
" clip-path="url(#p3efcc74b5d)" style="fill: none; stroke: #b0b0b0; stroke-width: 0.8; stroke-linecap: square"/>
     </g>
     <g id="line2d_22">
      <g>
       <use xlink:href="#m4ac2846b82" x="231.216976" y="127.997448" style="stroke: #000000; stroke-width: 0.8"/>
      </g>
     </g>
     <g id="text_13">
      <!-- $\mathdefault{10^{-1}}$ -->
      <g transform="translate(221.90476 141.172777) scale(0.09 -0.09)">
       <defs>
        <path id="CMSY10-0" d="M 4218 1472 
C 4326 1472 4442 1472 4442 1600 
C 4442 1728 4326 1728 4218 1728 
L 755 1728 
C 646 1728 531 1728 531 1600 
C 531 1472 646 1472 755 1472 
L 4218 1472 
z
" transform="scale(0.015625)"/>
       </defs>
       <use xlink:href="#CMR17-31" transform="scale(0.996264)"/>
       <use xlink:href="#CMR17-30" transform="translate(45.690477 0) scale(0.996264)"/>
       <use xlink:href="#CMSY10-0" transform="translate(91.380954 36.153639) scale(0.697382)"/>
       <use xlink:href="#CMR17-31" transform="translate(145.621947 36.153639) scale(0.697382)"/>
      </g>
     </g>
    </g>
    <g id="xtick_6">
     <g id="line2d_23">
      <path d="M 263.604714 127.997448 
L 263.604714 9.72 
" clip-path="url(#p3efcc74b5d)" style="fill: none; stroke: #b0b0b0; stroke-width: 0.8; stroke-linecap: square"/>
     </g>
     <g id="line2d_24">
      <g>
       <use xlink:href="#m4ac2846b82" x="263.604714" y="127.997448" style="stroke: #000000; stroke-width: 0.8"/>
      </g>
     </g>
     <g id="text_14">
      <!-- $\mathdefault{10^{1}}$ -->
      <g transform="translate(257.170567 141.172777) scale(0.09 -0.09)">
       <use xlink:href="#CMR17-31" transform="scale(0.996264)"/>
       <use xlink:href="#CMR17-30" transform="translate(45.690477 0) scale(0.996264)"/>
       <use xlink:href="#CMR17-31" transform="translate(91.380954 36.153639) scale(0.697382)"/>
      </g>
     </g>
    </g>
    <g id="xtick_7">
     <g id="line2d_25">
      <path d="M 295.992451 127.997448 
L 295.992451 9.72 
" clip-path="url(#p3efcc74b5d)" style="fill: none; stroke: #b0b0b0; stroke-width: 0.8; stroke-linecap: square"/>
     </g>
     <g id="line2d_26">
      <g>
       <use xlink:href="#m4ac2846b82" x="295.992451" y="127.997448" style="stroke: #000000; stroke-width: 0.8"/>
      </g>
     </g>
     <g id="text_15">
      <!-- $\mathdefault{10^{3}}$ -->
      <g transform="translate(289.558305 141.172777) scale(0.09 -0.09)">
       <defs>
        <path id="CMR17-33" d="M 1414 2176 
C 1984 2176 2234 1673 2234 1094 
C 2234 322 1824 25 1453 25 
C 1114 25 563 193 390 691 
C 422 678 454 678 486 678 
C 640 678 755 780 755 947 
C 755 1132 614 1216 486 1216 
C 378 1216 211 1164 211 927 
C 211 335 787 -128 1466 -128 
C 2176 -128 2720 432 2720 1087 
C 2720 1718 2208 2176 1600 2246 
C 2086 2347 2554 2776 2554 3353 
C 2554 3856 2048 4224 1472 4224 
C 890 4224 378 3862 378 3347 
C 378 3123 544 3084 627 3084 
C 762 3084 877 3167 877 3334 
C 877 3500 762 3584 627 3584 
C 602 3584 570 3584 544 3571 
C 730 3999 1235 4076 1459 4076 
C 1683 4076 2106 3966 2106 3347 
C 2106 3167 2080 2851 1862 2574 
C 1670 2329 1453 2316 1242 2297 
C 1210 2297 1062 2284 1037 2284 
C 992 2278 966 2272 966 2227 
C 966 2182 973 2176 1101 2176 
L 1414 2176 
z
" transform="scale(0.015625)"/>
       </defs>
       <use xlink:href="#CMR17-31" transform="scale(0.996264)"/>
       <use xlink:href="#CMR17-30" transform="translate(45.690477 0) scale(0.996264)"/>
       <use xlink:href="#CMR17-33" transform="translate(91.380954 36.153639) scale(0.697382)"/>
      </g>
     </g>
    </g>
    <g id="text_16">
     <!-- log(body weight) -->
     <g transform="translate(225.567531 153.638953) scale(0.09 -0.09)">
      <defs>
       <path id="SFRM3583-6c" d="M 307 4408 
L 307 4266 
L 384 4266 
C 608 4266 678 4163 678 3950 
L 678 373 
C 678 179 595 140 307 140 
L 307 0 
L 1306 0 
L 1306 140 
L 1203 140 
C 1062 140 934 160 934 366 
L 934 4480 
L 307 4408 
z
" transform="scale(0.015625)"/>
       <path id="SFRM3583-28" d="M 1837 4800 
C 1747 4748 1645 4639 1574 4549 
C 845 3751 595 2639 595 1584 
C 595 561 851 -507 1523 -1292 
C 1619 -1395 1786 -1600 1869 -1600 
C 1882 -1600 1894 -1594 1894 -1581 
C 1894 -1543 1709 -1362 1619 -1253 
C 1011 -462 813 587 813 1571 
C 813 2685 1030 3804 1805 4671 
C 1830 4697 1882 4735 1894 4774 
L 1894 4780 
C 1894 4793 1882 4800 1869 4800 
C 1856 4806 1843 4800 1837 4800 
z
" transform="scale(0.015625)"/>
       <path id="SFRM3583-62" d="M 288 4408 
L 288 4265 
L 365 4265 
C 570 4265 666 4187 666 3967 
L 666 -26 
L 749 -13 
L 896 494 
C 1114 208 1267 -64 1722 -64 
C 2445 -64 2912 675 2912 1390 
C 2912 2045 2515 2733 1862 2805 
L 1805 2805 
C 1459 2805 1088 2616 928 2285 
L 922 4480 
L 288 4408 
z
M 2579 1221 
C 2554 916 2509 604 2317 351 
C 2157 150 1926 13 1677 13 
C 1280 13 928 416 928 727 
L 928 1779 
C 928 1850 922 1915 922 1987 
C 922 2376 1357 2727 1741 2727 
C 2458 2727 2586 1811 2586 1364 
C 2586 1318 2586 1266 2579 1221 
z
" transform="scale(0.015625)"/>
       <path id="SFRM3583-29" d="M 333 4787 
C 333 4787 326 4787 326 4781 
C 326 4748 518 4568 608 4453 
C 1210 3661 1414 2632 1414 1648 
C 1414 542 1216 -597 422 -1478 
C 397 -1504 346 -1543 333 -1581 
L 333 -1588 
C 333 -1600 339 -1600 352 -1600 
C 448 -1600 570 -1440 659 -1343 
C 1395 -513 1632 561 1632 1622 
C 1632 2735 1318 4002 442 4755 
C 429 4768 390 4800 358 4800 
C 346 4800 339 4794 333 4787 
z
" transform="scale(0.015625)"/>
      </defs>
      <use xlink:href="#SFRM3583-6c" transform="scale(0.996264)"/>
      <use xlink:href="#SFRM3583-6f" transform="translate(24.738332 0) scale(0.996264)"/>
      <use xlink:href="#SFRM3583-67" transform="translate(69.316798 0) scale(0.996264)"/>
      <use xlink:href="#SFRM3583-28" transform="translate(113.895265 0) scale(0.996264)"/>
      <use xlink:href="#SFRM3583-62" transform="translate(148.553611 0) scale(0.996264)"/>
      <use xlink:href="#SFRM3583-6f" transform="translate(200.572013 0) scale(0.996264)"/>
      <use xlink:href="#SFRM3583-64" transform="translate(247.630453 0) scale(0.996264)"/>
      <use xlink:href="#SFRM3583-79" transform="translate(297.168881 0) scale(0.996264)"/>
      <use xlink:href="#SFRM3583-77" transform="translate(373.925614 0) scale(0.996264)"/>
      <use xlink:href="#SFRM3583-65" transform="translate(435.864212 0) scale(0.996264)"/>
      <use xlink:href="#SFRM3583-69" transform="translate(475.482611 0) scale(0.996264)"/>
      <use xlink:href="#SFRM3583-67" transform="translate(500.220943 0) scale(0.996264)"/>
      <use xlink:href="#SFRM3583-68" transform="translate(544.799409 0) scale(0.996264)"/>
      <use xlink:href="#SFRM3583-74" transform="translate(591.857849 0) scale(0.996264)"/>
      <use xlink:href="#SFRM3583-29" transform="translate(626.516195 0) scale(0.996264)"/>
     </g>
    </g>
   </g>
   <g id="matplotlib.axis_4">
    <g id="ytick_7">
     <g id="line2d_27">
      <path d="M 205.189613 126.029044 
L 314.28 126.029044 
" clip-path="url(#p3efcc74b5d)" style="fill: none; stroke: #b0b0b0; stroke-width: 0.8; stroke-linecap: square"/>
     </g>
     <g id="line2d_28">
      <g>
       <use xlink:href="#m0a92ea4bbd" x="205.189613" y="126.029044" style="stroke: #000000; stroke-width: 0.8"/>
      </g>
     </g>
     <g id="text_17">
      <!-- $\mathdefault{10^{-4}}$ -->
      <g transform="translate(179.56518 129.116708) scale(0.09 -0.09)">
       <use xlink:href="#CMR17-31" transform="scale(0.996264)"/>
       <use xlink:href="#CMR17-30" transform="translate(45.690477 0) scale(0.996264)"/>
       <use xlink:href="#CMSY10-0" transform="translate(91.380954 36.153639) scale(0.697382)"/>
       <use xlink:href="#CMR17-34" transform="translate(145.621947 36.153639) scale(0.697382)"/>
      </g>
     </g>
    </g>
    <g id="ytick_8">
     <g id="line2d_29">
      <path d="M 205.189613 102.708099 
L 314.28 102.708099 
" clip-path="url(#p3efcc74b5d)" style="fill: none; stroke: #b0b0b0; stroke-width: 0.8; stroke-linecap: square"/>
     </g>
     <g id="line2d_30">
      <g>
       <use xlink:href="#m0a92ea4bbd" x="205.189613" y="102.708099" style="stroke: #000000; stroke-width: 0.8"/>
      </g>
     </g>
     <g id="text_18">
      <!-- $\mathdefault{10^{-3}}$ -->
      <g transform="translate(179.56518 105.795763) scale(0.09 -0.09)">
       <use xlink:href="#CMR17-31" transform="scale(0.996264)"/>
       <use xlink:href="#CMR17-30" transform="translate(45.690477 0) scale(0.996264)"/>
       <use xlink:href="#CMSY10-0" transform="translate(91.380954 36.153639) scale(0.697382)"/>
       <use xlink:href="#CMR17-33" transform="translate(145.621947 36.153639) scale(0.697382)"/>
      </g>
     </g>
    </g>
    <g id="ytick_9">
     <g id="line2d_31">
      <path d="M 205.189613 79.387154 
L 314.28 79.387154 
" clip-path="url(#p3efcc74b5d)" style="fill: none; stroke: #b0b0b0; stroke-width: 0.8; stroke-linecap: square"/>
     </g>
     <g id="line2d_32">
      <g>
       <use xlink:href="#m0a92ea4bbd" x="205.189613" y="79.387154" style="stroke: #000000; stroke-width: 0.8"/>
      </g>
     </g>
     <g id="text_19">
      <!-- $\mathdefault{10^{-2}}$ -->
      <g transform="translate(179.56518 82.474818) scale(0.09 -0.09)">
       <use xlink:href="#CMR17-31" transform="scale(0.996264)"/>
       <use xlink:href="#CMR17-30" transform="translate(45.690477 0) scale(0.996264)"/>
       <use xlink:href="#CMSY10-0" transform="translate(91.380954 36.153639) scale(0.697382)"/>
       <use xlink:href="#CMR17-32" transform="translate(145.621947 36.153639) scale(0.697382)"/>
      </g>
     </g>
    </g>
    <g id="ytick_10">
     <g id="line2d_33">
      <path d="M 205.189613 56.066209 
L 314.28 56.066209 
" clip-path="url(#p3efcc74b5d)" style="fill: none; stroke: #b0b0b0; stroke-width: 0.8; stroke-linecap: square"/>
     </g>
     <g id="line2d_34">
      <g>
       <use xlink:href="#m0a92ea4bbd" x="205.189613" y="56.066209" style="stroke: #000000; stroke-width: 0.8"/>
      </g>
     </g>
     <g id="text_20">
      <!-- $\mathdefault{10^{-1}}$ -->
      <g transform="translate(179.56518 59.153873) scale(0.09 -0.09)">
       <use xlink:href="#CMR17-31" transform="scale(0.996264)"/>
       <use xlink:href="#CMR17-30" transform="translate(45.690477 0) scale(0.996264)"/>
       <use xlink:href="#CMSY10-0" transform="translate(91.380954 36.153639) scale(0.697382)"/>
       <use xlink:href="#CMR17-31" transform="translate(145.621947 36.153639) scale(0.697382)"/>
      </g>
     </g>
    </g>
    <g id="ytick_11">
     <g id="line2d_35">
      <path d="M 205.189613 32.745264 
L 314.28 32.745264 
" clip-path="url(#p3efcc74b5d)" style="fill: none; stroke: #b0b0b0; stroke-width: 0.8; stroke-linecap: square"/>
     </g>
     <g id="line2d_36">
      <g>
       <use xlink:href="#m0a92ea4bbd" x="205.189613" y="32.745264" style="stroke: #000000; stroke-width: 0.8"/>
      </g>
     </g>
     <g id="text_21">
      <!-- $\mathdefault{10^{0}}$ -->
      <g transform="translate(185.32132 35.832928) scale(0.09 -0.09)">
       <use xlink:href="#CMR17-31" transform="scale(0.996264)"/>
       <use xlink:href="#CMR17-30" transform="translate(45.690477 0) scale(0.996264)"/>
       <use xlink:href="#CMR17-30" transform="translate(91.380954 36.153639) scale(0.697382)"/>
      </g>
     </g>
    </g>
    <g id="ytick_12">
     <g id="line2d_37">
      <defs>
       <path id="m45f96c14ae" d="M 0 0 
L -2 0 
" style="stroke: #000000; stroke-width: 0.6"/>
      </defs>
      <g>
       <use xlink:href="#m45f96c14ae" x="205.189613" y="127.096152" style="stroke: #000000; stroke-width: 0.6"/>
      </g>
     </g>
    </g>
    <g id="ytick_13">
     <g id="line2d_38">
      <g>
       <use xlink:href="#m45f96c14ae" x="205.189613" y="119.00874" style="stroke: #000000; stroke-width: 0.6"/>
      </g>
     </g>
    </g>
    <g id="ytick_14">
     <g id="line2d_39">
      <g>
       <use xlink:href="#m45f96c14ae" x="205.189613" y="114.902125" style="stroke: #000000; stroke-width: 0.6"/>
      </g>
     </g>
    </g>
    <g id="ytick_15">
     <g id="line2d_40">
      <g>
       <use xlink:href="#m45f96c14ae" x="205.189613" y="111.988436" style="stroke: #000000; stroke-width: 0.6"/>
      </g>
     </g>
    </g>
    <g id="ytick_16">
     <g id="line2d_41">
      <g>
       <use xlink:href="#m45f96c14ae" x="205.189613" y="109.728403" style="stroke: #000000; stroke-width: 0.6"/>
      </g>
     </g>
    </g>
    <g id="ytick_17">
     <g id="line2d_42">
      <g>
       <use xlink:href="#m45f96c14ae" x="205.189613" y="107.881821" style="stroke: #000000; stroke-width: 0.6"/>
      </g>
     </g>
    </g>
    <g id="ytick_18">
     <g id="line2d_43">
      <g>
       <use xlink:href="#m45f96c14ae" x="205.189613" y="106.320559" style="stroke: #000000; stroke-width: 0.6"/>
      </g>
     </g>
    </g>
    <g id="ytick_19">
     <g id="line2d_44">
      <g>
       <use xlink:href="#m45f96c14ae" x="205.189613" y="104.968132" style="stroke: #000000; stroke-width: 0.6"/>
      </g>
     </g>
    </g>
    <g id="ytick_20">
     <g id="line2d_45">
      <g>
       <use xlink:href="#m45f96c14ae" x="205.189613" y="103.775207" style="stroke: #000000; stroke-width: 0.6"/>
      </g>
     </g>
    </g>
    <g id="ytick_21">
     <g id="line2d_46">
      <g>
       <use xlink:href="#m45f96c14ae" x="205.189613" y="95.687795" style="stroke: #000000; stroke-width: 0.6"/>
      </g>
     </g>
    </g>
    <g id="ytick_22">
     <g id="line2d_47">
      <g>
       <use xlink:href="#m45f96c14ae" x="205.189613" y="91.58118" style="stroke: #000000; stroke-width: 0.6"/>
      </g>
     </g>
    </g>
    <g id="ytick_23">
     <g id="line2d_48">
      <g>
       <use xlink:href="#m45f96c14ae" x="205.189613" y="88.667491" style="stroke: #000000; stroke-width: 0.6"/>
      </g>
     </g>
    </g>
    <g id="ytick_24">
     <g id="line2d_49">
      <g>
       <use xlink:href="#m45f96c14ae" x="205.189613" y="86.407458" style="stroke: #000000; stroke-width: 0.6"/>
      </g>
     </g>
    </g>
    <g id="ytick_25">
     <g id="line2d_50">
      <g>
       <use xlink:href="#m45f96c14ae" x="205.189613" y="84.560876" style="stroke: #000000; stroke-width: 0.6"/>
      </g>
     </g>
    </g>
    <g id="ytick_26">
     <g id="line2d_51">
      <g>
       <use xlink:href="#m45f96c14ae" x="205.189613" y="82.999614" style="stroke: #000000; stroke-width: 0.6"/>
      </g>
     </g>
    </g>
    <g id="ytick_27">
     <g id="line2d_52">
      <g>
       <use xlink:href="#m45f96c14ae" x="205.189613" y="81.647187" style="stroke: #000000; stroke-width: 0.6"/>
      </g>
     </g>
    </g>
    <g id="ytick_28">
     <g id="line2d_53">
      <g>
       <use xlink:href="#m45f96c14ae" x="205.189613" y="80.454262" style="stroke: #000000; stroke-width: 0.6"/>
      </g>
     </g>
    </g>
    <g id="ytick_29">
     <g id="line2d_54">
      <g>
       <use xlink:href="#m45f96c14ae" x="205.189613" y="72.36685" style="stroke: #000000; stroke-width: 0.6"/>
      </g>
     </g>
    </g>
    <g id="ytick_30">
     <g id="line2d_55">
      <g>
       <use xlink:href="#m45f96c14ae" x="205.189613" y="68.260235" style="stroke: #000000; stroke-width: 0.6"/>
      </g>
     </g>
    </g>
    <g id="ytick_31">
     <g id="line2d_56">
      <g>
       <use xlink:href="#m45f96c14ae" x="205.189613" y="65.346546" style="stroke: #000000; stroke-width: 0.6"/>
      </g>
     </g>
    </g>
    <g id="ytick_32">
     <g id="line2d_57">
      <g>
       <use xlink:href="#m45f96c14ae" x="205.189613" y="63.086513" style="stroke: #000000; stroke-width: 0.6"/>
      </g>
     </g>
    </g>
    <g id="ytick_33">
     <g id="line2d_58">
      <g>
       <use xlink:href="#m45f96c14ae" x="205.189613" y="61.239931" style="stroke: #000000; stroke-width: 0.6"/>
      </g>
     </g>
    </g>
    <g id="ytick_34">
     <g id="line2d_59">
      <g>
       <use xlink:href="#m45f96c14ae" x="205.189613" y="59.678669" style="stroke: #000000; stroke-width: 0.6"/>
      </g>
     </g>
    </g>
    <g id="ytick_35">
     <g id="line2d_60">
      <g>
       <use xlink:href="#m45f96c14ae" x="205.189613" y="58.326242" style="stroke: #000000; stroke-width: 0.6"/>
      </g>
     </g>
    </g>
    <g id="ytick_36">
     <g id="line2d_61">
      <g>
       <use xlink:href="#m45f96c14ae" x="205.189613" y="57.133317" style="stroke: #000000; stroke-width: 0.6"/>
      </g>
     </g>
    </g>
    <g id="ytick_37">
     <g id="line2d_62">
      <g>
       <use xlink:href="#m45f96c14ae" x="205.189613" y="49.045905" style="stroke: #000000; stroke-width: 0.6"/>
      </g>
     </g>
    </g>
    <g id="ytick_38">
     <g id="line2d_63">
      <g>
       <use xlink:href="#m45f96c14ae" x="205.189613" y="44.93929" style="stroke: #000000; stroke-width: 0.6"/>
      </g>
     </g>
    </g>
    <g id="ytick_39">
     <g id="line2d_64">
      <g>
       <use xlink:href="#m45f96c14ae" x="205.189613" y="42.025601" style="stroke: #000000; stroke-width: 0.6"/>
      </g>
     </g>
    </g>
    <g id="ytick_40">
     <g id="line2d_65">
      <g>
       <use xlink:href="#m45f96c14ae" x="205.189613" y="39.765568" style="stroke: #000000; stroke-width: 0.6"/>
      </g>
     </g>
    </g>
    <g id="ytick_41">
     <g id="line2d_66">
      <g>
       <use xlink:href="#m45f96c14ae" x="205.189613" y="37.918986" style="stroke: #000000; stroke-width: 0.6"/>
      </g>
     </g>
    </g>
    <g id="ytick_42">
     <g id="line2d_67">
      <g>
       <use xlink:href="#m45f96c14ae" x="205.189613" y="36.357724" style="stroke: #000000; stroke-width: 0.6"/>
      </g>
     </g>
    </g>
    <g id="ytick_43">
     <g id="line2d_68">
      <g>
       <use xlink:href="#m45f96c14ae" x="205.189613" y="35.005297" style="stroke: #000000; stroke-width: 0.6"/>
      </g>
     </g>
    </g>
    <g id="ytick_44">
     <g id="line2d_69">
      <g>
       <use xlink:href="#m45f96c14ae" x="205.189613" y="33.812372" style="stroke: #000000; stroke-width: 0.6"/>
      </g>
     </g>
    </g>
    <g id="ytick_45">
     <g id="line2d_70">
      <g>
       <use xlink:href="#m45f96c14ae" x="205.189613" y="25.72496" style="stroke: #000000; stroke-width: 0.6"/>
      </g>
     </g>
    </g>
    <g id="ytick_46">
     <g id="line2d_71">
      <g>
       <use xlink:href="#m45f96c14ae" x="205.189613" y="21.618345" style="stroke: #000000; stroke-width: 0.6"/>
      </g>
     </g>
    </g>
    <g id="ytick_47">
     <g id="line2d_72">
      <g>
       <use xlink:href="#m45f96c14ae" x="205.189613" y="18.704656" style="stroke: #000000; stroke-width: 0.6"/>
      </g>
     </g>
    </g>
    <g id="ytick_48">
     <g id="line2d_73">
      <g>
       <use xlink:href="#m45f96c14ae" x="205.189613" y="16.444623" style="stroke: #000000; stroke-width: 0.6"/>
      </g>
     </g>
    </g>
    <g id="ytick_49">
     <g id="line2d_74">
      <g>
       <use xlink:href="#m45f96c14ae" x="205.189613" y="14.598041" style="stroke: #000000; stroke-width: 0.6"/>
      </g>
     </g>
    </g>
    <g id="ytick_50">
     <g id="line2d_75">
      <g>
       <use xlink:href="#m45f96c14ae" x="205.189613" y="13.036779" style="stroke: #000000; stroke-width: 0.6"/>
      </g>
     </g>
    </g>
    <g id="ytick_51">
     <g id="line2d_76">
      <g>
       <use xlink:href="#m45f96c14ae" x="205.189613" y="11.684352" style="stroke: #000000; stroke-width: 0.6"/>
      </g>
     </g>
    </g>
    <g id="ytick_52">
     <g id="line2d_77">
      <g>
       <use xlink:href="#m45f96c14ae" x="205.189613" y="10.491426" style="stroke: #000000; stroke-width: 0.6"/>
      </g>
     </g>
    </g>
    <g id="text_22">
     <!-- log(brain weight) -->
     <g transform="translate(173.324133 103.42025) rotate(-90) scale(0.09 -0.09)">
      <use xlink:href="#SFRM3583-6c" transform="scale(0.996264)"/>
      <use xlink:href="#SFRM3583-6f" transform="translate(24.738332 0) scale(0.996264)"/>
      <use xlink:href="#SFRM3583-67" transform="translate(69.316798 0) scale(0.996264)"/>
      <use xlink:href="#SFRM3583-28" transform="translate(113.895265 0) scale(0.996264)"/>
      <use xlink:href="#SFRM3583-62" transform="translate(148.553611 0) scale(0.996264)"/>
      <use xlink:href="#SFRM3583-72" transform="translate(198.092039 0) scale(0.996264)"/>
      <use xlink:href="#SFRM3583-61" transform="translate(232.750386 0) scale(0.996264)"/>
      <use xlink:href="#SFRM3583-69" transform="translate(277.328852 0) scale(0.996264)"/>
      <use xlink:href="#SFRM3583-6e" transform="translate(302.067184 0) scale(0.996264)"/>
      <use xlink:href="#SFRM3583-77" transform="translate(381.303906 0) scale(0.996264)"/>
      <use xlink:href="#SFRM3583-65" transform="translate(443.242504 0) scale(0.996264)"/>
      <use xlink:href="#SFRM3583-69" transform="translate(482.860902 0) scale(0.996264)"/>
      <use xlink:href="#SFRM3583-67" transform="translate(507.599234 0) scale(0.996264)"/>
      <use xlink:href="#SFRM3583-68" transform="translate(552.177701 0) scale(0.996264)"/>
      <use xlink:href="#SFRM3583-74" transform="translate(599.236141 0) scale(0.996264)"/>
      <use xlink:href="#SFRM3583-29" transform="translate(633.894487 0) scale(0.996264)"/>
     </g>
    </g>
   </g>
   <g id="patch_8">
    <path d="M 205.189613 127.997448 
L 205.189613 9.72 
" style="fill: none; stroke: #000000; stroke-width: 0.8; stroke-linejoin: miter; stroke-linecap: square"/>
   </g>
   <g id="patch_9">
    <path d="M 314.28 127.997448 
L 314.28 9.72 
" style="fill: none; stroke: #000000; stroke-width: 0.8; stroke-linejoin: miter; stroke-linecap: square"/>
   </g>
   <g id="patch_10">
    <path d="M 205.189613 127.997448 
L 314.28 127.997448 
" style="fill: none; stroke: #000000; stroke-width: 0.8; stroke-linejoin: miter; stroke-linecap: square"/>
   </g>
   <g id="patch_11">
    <path d="M 205.189613 9.72 
L 314.28 9.72 
" style="fill: none; stroke: #000000; stroke-width: 0.8; stroke-linejoin: miter; stroke-linecap: square"/>
   </g>
   <g id="text_23">
    <!-- $r_{xy} = 0.965$ -->
    <g transform="translate(219.897948 38.832078) scale(0.09 -0.09)">
     <defs>
      <path id="CMMI12-72" d="M 2490 2633 
C 2291 2598 2189 2457 2189 2316 
C 2189 2163 2310 2111 2400 2111 
C 2579 2111 2726 2265 2726 2457 
C 2726 2651 2528 2816 2208 2816 
C 1952 2816 1658 2700 1389 2335 
C 1344 2660 1088 2816 832 2816 
C 582 2816 454 2642 378 2508 
C 269 2278 173 1892 173 1860 
C 173 1834 198 1801 243 1801 
C 294 1801 301 1808 339 1957 
C 435 2342 557 2687 813 2687 
C 966 2687 1011 2604 1011 2419 
C 1011 2278 947 2028 902 1827 
L 723 1130 
C 698 1007 627 716 595 600 
C 550 432 480 128 480 96 
C 480 6 550 -64 646 -64 
C 717 -64 838 -20 877 109 
C 896 160 1133 1136 1171 1285 
C 1203 1427 1242 1562 1274 1705 
C 1299 1795 1325 1898 1344 1982 
C 1363 2040 1536 2355 1696 2495 
C 1773 2566 1939 2687 2202 2687 
C 2304 2687 2406 2674 2490 2633 
z
" transform="scale(0.015625)"/>
      <path id="CMMI12-78" d="M 3034 2624 
C 2829 2585 2752 2431 2752 2310 
C 2752 2156 2874 2105 2963 2105 
C 3155 2105 3290 2271 3290 2444 
C 3290 2694 2982 2816 2714 2816 
C 2323 2816 2106 2451 2048 2329 
C 1901 2790 1504 2816 1389 2816 
C 736 2816 390 1993 390 1849 
C 390 1823 416 1790 461 1790 
C 512 1790 525 1829 538 1855 
C 755 2572 1184 2687 1370 2687 
C 1658 2687 1715 2438 1715 2284 
C 1715 2143 1677 1993 1600 1678 
L 1382 778 
C 1286 390 1101 64 762 64 
C 730 64 570 64 435 126 
C 666 166 717 358 717 435 
C 717 563 621 640 499 640 
C 346 640 179 505 179 300 
C 179 57 480 -64 755 -64 
C 1062 -64 1280 153 1414 415 
C 1517 64 1837 -64 2074 -64 
C 2726 -64 3072 751 3072 896 
C 3072 929 3046 955 3008 955 
C 2950 955 2944 922 2925 870 
C 2752 300 2381 64 2093 64 
C 1869 64 1747 204 1747 467 
C 1747 607 1773 712 1875 1146 
L 2099 2039 
C 2195 2425 2413 2687 2707 2687 
C 2720 2687 2899 2687 3034 2624 
z
" transform="scale(0.015625)"/>
      <path id="CMMI12-79" d="M 1683 -673 
C 1510 -921 1261 -1152 947 -1152 
C 870 -1152 563 -1139 467 -826 
C 486 -833 518 -833 531 -833 
C 723 -833 851 -666 851 -519 
C 851 -372 730 -320 634 -320 
C 531 -320 307 -397 307 -711 
C 307 -1050 582 -1280 947 -1280 
C 1587 -1280 2234 -673 2413 -7 
L 3040 2483 
C 3046 2515 3059 2553 3059 2591 
C 3059 2687 2982 2752 2886 2752 
C 2829 2752 2694 2726 2643 2534 
L 2170 657 
C 2138 542 2138 530 2086 459 
C 1958 281 1747 64 1440 64 
C 1082 64 1050 415 1050 587 
C 1050 951 1222 1443 1395 1902 
C 1466 2087 1504 2177 1504 2305 
C 1504 2573 1312 2816 998 2816 
C 410 2816 173 1890 173 1838 
C 173 1813 198 1781 243 1781 
C 301 1781 307 1807 333 1896 
C 486 2432 730 2687 979 2687 
C 1037 2687 1146 2687 1146 2477 
C 1146 2311 1075 2126 979 1883 
C 666 1047 666 836 666 683 
C 666 76 1101 -64 1421 -64 
C 1606 -64 1837 -7 2061 230 
L 2067 223 
C 1971 -141 1907 -359 1683 -673 
z
" transform="scale(0.015625)"/>
      <path id="CMR17-3d" d="M 4115 2048 
C 4211 2048 4307 2048 4307 2156 
C 4307 2272 4198 2272 4090 2272 
L 512 2272 
C 403 2272 294 2272 294 2156 
C 294 2048 390 2048 486 2048 
L 4115 2048 
z
M 4090 927 
C 4198 927 4307 927 4307 1043 
C 4307 1152 4211 1152 4115 1152 
L 486 1152 
C 390 1152 294 1152 294 1043 
C 294 927 403 927 512 927 
L 4090 927 
z
" transform="scale(0.015625)"/>
      <path id="CMR17-39" d="M 2253 1871 
C 2253 448 1670 25 1190 25 
C 1043 25 685 43 538 281 
C 704 256 826 345 826 505 
C 826 678 685 736 595 736 
C 538 736 365 710 365 492 
C 365 68 742 -128 1203 -128 
C 1939 -128 2688 665 2688 2090 
C 2688 3857 1971 4224 1485 4224 
C 851 4224 243 3664 243 2800 
C 243 2000 762 1408 1414 1408 
C 1952 1408 2189 1910 2253 2122 
L 2253 1871 
z
M 1427 1510 
C 1254 1510 1011 1542 813 1929 
C 678 2181 678 2477 678 2793 
C 678 3174 678 3438 858 3722 
C 947 3857 1114 4076 1485 4076 
C 2240 4076 2240 2909 2240 2651 
C 2240 2193 2035 1510 1427 1510 
z
" transform="scale(0.015625)"/>
     </defs>
     <use xlink:href="#CMMI12-72" transform="scale(0.996264)"/>
     <use xlink:href="#CMMI12-78" transform="translate(43.960894 -14.943915) scale(0.697382)"/>
     <use xlink:href="#CMMI12-79" transform="translate(82.764554 -14.943915) scale(0.697382)"/>
     <use xlink:href="#CMR17-3d" transform="translate(146.733669 0) scale(0.996264)"/>
     <use xlink:href="#CMR17-30" transform="translate(246.122466 0) scale(0.996264)"/>
     <use xlink:href="#CMMI12-3a" transform="translate(291.812943 0) scale(0.996264)"/>
     <use xlink:href="#CMR17-39" transform="translate(318.91012 0) scale(0.996264)"/>
     <use xlink:href="#CMR17-36" transform="translate(364.600597 0) scale(0.996264)"/>
     <use xlink:href="#CMR17-35" transform="translate(410.291075 0) scale(0.996264)"/>
    </g>
   </g>
  </g>
 </g>
 <defs>
  <clipPath id="p1226f009a5">
   <rect x="46.067087" y="9.72" width="109.090387" height="118.277448"/>
  </clipPath>
  <clipPath id="p3efcc74b5d">
   <rect x="205.189613" y="9.72" width="109.090387" height="118.277448"/>
  </clipPath>
 </defs>
</svg>
